<svg width="21" height="21" viewBox="0 0 21 21" fill="none" xmlns="http://www.w3.org/2000/svg">
<g clip-path="url(#clip0_179_780)">
<path fill-rule="evenodd" clip-rule="evenodd" d="M17.523 19.1332L5.02612 18.8562C3.64583 18.8256 2.55154 17.6817 2.58214 16.3014L2.63754 13.802L3.88723 13.8297L3.83183 16.3291C3.81654 17.0189 4.36399 17.5912 5.05382 17.6065L17.5507 17.8835C18.2406 17.8988 18.8129 17.3514 18.8281 16.6615L19.1052 4.16459C19.1205 3.47476 18.573 2.90249 17.8832 2.8872L5.38626 2.61017C4.69643 2.59487 4.12415 3.14232 4.10886 3.83216L4.05345 6.33154L2.80376 6.30384L2.85917 3.80445C2.88976 2.42417 4.03367 1.32987 5.41396 1.36047L17.9109 1.6375C19.2912 1.6681 20.3855 2.81201 20.3549 4.1923L20.0778 16.6892C20.0472 18.0695 18.9033 19.1638 17.523 19.1332ZM11.1444 6.33683C10.9062 6.08774 10.9149 5.69159 11.164 5.4533C11.4131 5.21439 11.8093 5.22317 12.0482 5.4729L16.2635 9.87927C16.3905 10.0127 16.4423 10.1871 16.4298 10.3568C16.4348 10.527 16.3753 10.6988 16.2425 10.8259L11.8361 15.0412C11.5864 15.2801 11.1902 15.2713 10.9519 15.0216C10.7136 14.7731 10.7224 14.3769 10.9715 14.138L14.3202 10.9352L0.83226 10.6362C0.48672 10.6285 0.213619 10.3424 0.221265 9.99751C0.228925 9.65197 0.514423 9.37886 0.859963 9.38652L14.3479 9.68552L11.1444 6.33683Z" fill="#B56D94"/>
</g>
<defs>
<clipPath id="clip0_179_780">
<rect width="20" height="20" fill="white" transform="matrix(0.999754 0.0221625 0.0221625 -0.999754 0 19.9951)"/>
</clipPath>
</defs>
</svg>
