<svg width="40" height="40" viewBox="0 0 40 40" fill="none" xmlns="http://www.w3.org/2000/svg">
<path d="M1 39V1H39V39H1Z" fill="white" stroke="#B56D94" stroke-width="2"/>
<path d="M33.3333 18.8892H5V33.8892C5 34.8097 5.7462 35.5558 6.66667 35.5558H33.3333C34.2538 35.5558 35 34.8097 35 33.8892V20.5558C35 19.6353 34.2538 18.8892 33.3333 18.8892Z" stroke="#B56D94" stroke-width="2" stroke-linejoin="round"/>
<path d="M2.77771 12.264L29.4006 2.87553C30.2656 2.57052 31.222 3.0026 31.5368 3.84058L32.6767 6.87524C32.9916 7.71324 32.5456 8.63982 31.6806 8.94482L5.0577 18.3333L2.77771 12.264Z" stroke="#B56D94" stroke-width="2" stroke-linejoin="round"/>
<path d="M26.1111 3.88916L25.5556 11.1114" stroke="#B56D94" stroke-width="2"/>
<path d="M20 6.11084L18.8889 13.3331" stroke="#B56D94" stroke-width="2"/>
<path d="M13.8888 8.33313L12.7777 15.5554" stroke="#B56D94" stroke-width="2"/>
<path d="M7.2223 10.5557L6.66675 17.7779" stroke="#B56D94" stroke-width="2"/>
</svg>
