<svg width="40" height="35" viewBox="0 0 40 35" fill="none" xmlns="http://www.w3.org/2000/svg">
<path d="M0 0V35H40V0H0ZM38.0362 32.8187H1.96385V32.2436L10.6048 22.6459L15.9072 28.5354L16.4115 29.0956L16.9159 28.5354L31.3323 12.5227L38.0362 19.9688V32.8187ZM38.0362 18.8435L31.3323 11.3973L16.4115 27.9752L10.6048 21.5205L1.96385 31.1183V2.1813H38.0362V18.8435Z" fill="#B56D94"/>
<path d="M14.7468 15.2194C12.8008 15.2194 11.2163 13.4595 11.2163 11.298C11.2163 9.13655 12.8008 7.37663 14.7468 7.37663C16.6928 7.37663 18.2772 9.13655 18.2772 11.298C18.2772 13.4595 16.6928 15.2194 14.7468 15.2194ZM14.7468 8.16983C13.1935 8.16983 11.9304 9.57281 11.9304 11.298C11.9304 13.0232 13.1935 14.4262 14.7468 14.4262C16.3 14.4262 17.5631 13.0232 17.5631 11.298C17.5631 9.57281 16.3 8.16983 14.7468 8.16983Z" fill="#B56D94"/>
<path d="M14.2825 5.57201C14.2825 5.70349 14.3295 5.82958 14.4132 5.92255C14.4969 6.01553 14.6104 6.06776 14.7288 6.06776C14.8472 6.06776 14.9607 6.01553 15.0444 5.92255C15.1281 5.82958 15.1751 5.70349 15.1751 5.57201C15.1751 5.44053 15.1281 5.31443 15.0444 5.22146C14.9607 5.12849 14.8472 5.07626 14.7288 5.07626C14.6104 5.07626 14.4969 5.12849 14.4132 5.22146C14.3295 5.31443 14.2825 5.44053 14.2825 5.57201Z" fill="#B56D94"/>
<path d="M11.7072 6.34512C11.7072 6.4766 11.7542 6.60269 11.8379 6.69567C11.9216 6.78864 12.0351 6.84087 12.1535 6.84087C12.2719 6.84087 12.3854 6.78864 12.4691 6.69567C12.5528 6.60269 12.5998 6.4766 12.5998 6.34512C12.5998 6.21363 12.5528 6.08754 12.4691 5.99457C12.3854 5.9016 12.2719 5.84937 12.1535 5.84937C12.0351 5.84937 11.9216 5.9016 11.8379 5.99457C11.7542 6.08754 11.7072 6.21363 11.7072 6.34512Z" fill="#B56D94"/>
<path d="M9.82373 8.45229C9.82373 8.58377 9.87075 8.70987 9.95446 8.80284C10.0382 8.89581 10.1517 8.94804 10.2701 8.94804C10.3884 8.94804 10.502 8.89581 10.5857 8.80284C10.6694 8.70987 10.7164 8.58377 10.7164 8.45229C10.7164 8.32081 10.6694 8.19472 10.5857 8.10174C10.502 8.00877 10.3884 7.95654 10.2701 7.95654C10.1517 7.95654 10.0382 8.00877 9.95446 8.10174C9.87075 8.19472 9.82373 8.32081 9.82373 8.45229Z" fill="#B56D94"/>
<path d="M9.14087 11.3177C9.14087 11.4492 9.18789 11.5753 9.2716 11.6682C9.3553 11.7612 9.46882 11.8134 9.5872 11.8134C9.70557 11.8134 9.8191 11.7612 9.9028 11.6682C9.9865 11.5753 10.0335 11.4492 10.0335 11.3177C10.0335 11.1862 9.9865 11.0601 9.9028 10.9671C9.8191 10.8742 9.70557 10.8219 9.5872 10.8219C9.46882 10.8219 9.3553 10.8742 9.2716 10.9671C9.18789 11.0601 9.14087 11.1862 9.14087 11.3177Z" fill="#B56D94"/>
<path d="M9.84155 14.178C9.84155 14.3094 9.88858 14.4355 9.97228 14.5285C10.056 14.6215 10.1695 14.6737 10.2879 14.6737C10.4063 14.6737 10.5198 14.6215 10.6035 14.5285C10.6872 14.4355 10.7342 14.3094 10.7342 14.178C10.7342 14.0465 10.6872 13.9204 10.6035 13.8274C10.5198 13.7344 10.4063 13.6822 10.2879 13.6822C10.1695 13.6822 10.056 13.7344 9.97228 13.8274C9.88858 13.9204 9.84155 14.0465 9.84155 14.178Z" fill="#B56D94"/>
<path d="M11.734 16.2652C11.734 16.3967 11.781 16.5228 11.8647 16.6158C11.9484 16.7087 12.062 16.761 12.1803 16.761C12.2987 16.761 12.4122 16.7087 12.4959 16.6158C12.5796 16.5228 12.6267 16.3967 12.6267 16.2652C12.6267 16.1337 12.5796 16.0076 12.4959 15.9147C12.4122 15.8217 12.2987 15.7695 12.1803 15.7695C12.062 15.7695 11.9484 15.8217 11.8647 15.9147C11.781 16.0076 11.734 16.1337 11.734 16.2652Z" fill="#B56D94"/>
<path d="M14.3137 17.024C14.3137 17.1555 14.3607 17.2816 14.4444 17.3745C14.5282 17.4675 14.6417 17.5197 14.76 17.5197C14.8784 17.5197 14.9919 17.4675 15.0757 17.3745C15.1594 17.2816 15.2064 17.1555 15.2064 17.024C15.2064 16.8925 15.1594 16.7664 15.0757 16.6734C14.9919 16.5805 14.8784 16.5282 14.76 16.5282C14.6417 16.5282 14.5282 16.5805 14.4444 16.6734C14.3607 16.7664 14.3137 16.8925 14.3137 17.024Z" fill="#B56D94"/>
<path d="M16.8936 16.2504C16.8936 16.3819 16.9406 16.508 17.0243 16.6009C17.108 16.6939 17.2215 16.7461 17.3399 16.7461C17.4583 16.7461 17.5718 16.6939 17.6555 16.6009C17.7392 16.508 17.7862 16.3819 17.7862 16.2504C17.7862 16.1189 17.7392 15.9928 17.6555 15.8998C17.5718 15.8069 17.4583 15.7546 17.3399 15.7546C17.2215 15.7546 17.108 15.8069 17.0243 15.8998C16.9406 15.9928 16.8936 16.1189 16.8936 16.2504Z" fill="#B56D94"/>
<path d="M18.7726 14.1438C18.7726 14.2753 18.8196 14.4014 18.9033 14.4943C18.987 14.5873 19.1005 14.6395 19.2189 14.6395C19.3373 14.6395 19.4508 14.5873 19.5345 14.4943C19.6182 14.4014 19.6652 14.2753 19.6652 14.1438C19.6652 14.0123 19.6182 13.8862 19.5345 13.7932C19.4508 13.7003 19.3373 13.648 19.2189 13.648C19.1005 13.648 18.987 13.7003 18.9033 13.7932C18.8196 13.8862 18.7726 14.0123 18.7726 14.1438Z" fill="#B56D94"/>
<path d="M19.4556 11.2781C19.4556 11.4095 19.5026 11.5356 19.5863 11.6286C19.67 11.7216 19.7835 11.7738 19.9019 11.7738C20.0203 11.7738 20.1338 11.7216 20.2175 11.6286C20.3012 11.5356 20.3482 11.4095 20.3482 11.2781C20.3482 11.1466 20.3012 11.0205 20.2175 10.9275C20.1338 10.8345 20.0203 10.7823 19.9019 10.7823C19.7835 10.7823 19.67 10.8345 19.5863 10.9275C19.5026 11.0205 19.4556 11.1466 19.4556 11.2781Z" fill="#B56D94"/>
<path d="M18.7548 8.41755C18.7548 8.54903 18.8018 8.67513 18.8855 8.7681C18.9692 8.86107 19.0827 8.9133 19.2011 8.9133C19.3195 8.9133 19.433 8.86107 19.5167 8.7681C19.6004 8.67513 19.6474 8.54903 19.6474 8.41755C19.6474 8.28607 19.6004 8.15997 19.5167 8.067C19.433 7.97403 19.3195 7.9218 19.2011 7.9218C19.0827 7.9218 18.9692 7.97403 18.8855 8.067C18.8018 8.15997 18.7548 8.28607 18.7548 8.41755Z" fill="#B56D94"/>
<path d="M16.8623 6.33031C16.8623 6.46179 16.9093 6.58789 16.993 6.68086C17.0767 6.77383 17.1903 6.82606 17.3086 6.82606C17.427 6.82606 17.5405 6.77383 17.6242 6.68086C17.7079 6.58789 17.755 6.46179 17.755 6.33031C17.755 6.19883 17.7079 6.07273 17.6242 5.97976C17.5405 5.88679 17.427 5.83456 17.3086 5.83456C17.1903 5.83456 17.0767 5.88679 16.993 5.97976C16.9093 6.07273 16.8623 6.19883 16.8623 6.33031Z" fill="#B56D94"/>
</svg>
