<svg width="42" height="32" viewBox="0 0 42 32" fill="none" xmlns="http://www.w3.org/2000/svg">
<path d="M15.4444 8.5V23.5M8.77778 16H22.1111M29.8889 11L35.6151 7.1348C37.3776 5.94508 38.2589 5.35023 38.984 5.42628C39.6162 5.49258 40.1931 5.86 40.5689 6.43582C41 7.0962 41 8.25238 41 10.5648V21.4352C41 23.7475 41 24.9037 40.5689 25.5642C40.1931 26.14 39.6162 26.5075 38.984 26.5737C38.2589 26.6497 37.3776 26.055 35.6151 24.8652L29.8889 21M8.11111 31H22.7778C25.2669 31 26.5116 31 27.4622 30.455C28.2984 29.9757 28.9784 29.2108 29.4044 28.27C29.8889 27.2005 29.8889 25.8003 29.8889 23V9C29.8889 6.19975 29.8889 4.7996 29.4044 3.73005C28.9784 2.78923 28.2984 2.02432 27.4622 1.54497C26.5116 1 25.2669 1 22.7778 1H8.11111C5.622 1 4.37742 1 3.42671 1.54497C2.59042 2.02432 1.91051 2.78923 1.48442 3.73005C1 4.7996 1 6.19972 1 9V23C1 25.8003 1 27.2005 1.48442 28.27C1.91051 29.2108 2.59042 29.9757 3.42671 30.455C4.37742 31 5.62198 31 8.11111 31Z" stroke="#B56D94" stroke-width="2" stroke-linecap="round" stroke-linejoin="round"/>
</svg>
