<svg width="40" height="40" viewBox="0 0 40 40" fill="none" xmlns="http://www.w3.org/2000/svg">
<g clip-path="url(#clip0_179_258)">
<path d="M37.5 0H2.5C1.11812 0 0 1.11812 0 2.5V37.5C0 38.8819 1.11812 40 2.5 40H37.5C38.8819 40 40 38.8819 40 37.5V2.5C40 1.11812 38.8819 0 37.5 0ZM38.75 37.5C38.75 38.19 38.19 38.75 37.5 38.75H2.5C1.81 38.75 1.25 38.19 1.25 37.5V35.7494L10.3769 26.6225C10.865 26.1344 11.6562 26.1344 12.1444 26.6225C12.1444 26.6225 16.0175 30.4962 16.6131 31.0912C17.2087 31.6869 17.7881 31.685 18.3813 31.0912C18.9744 30.4975 29.1131 20.3594 29.1131 20.3594C29.6013 19.8713 30.3925 19.8713 30.8806 20.3594L38.75 28.2294V37.5ZM38.75 26.4613L31.7644 19.4756C30.7875 18.4987 29.2062 18.4987 28.2294 19.4756L17.4975 30.2075L13.0281 25.7388C12.0512 24.7619 10.47 24.7619 9.49312 25.7388L1.25 33.9813V2.5C1.25 1.81 1.81 1.25 2.5 1.25H37.5C38.19 1.25 38.75 1.81 38.75 2.5V26.4613Z" fill="#231F20"/>
<path d="M18.1244 10.6249H16.2506C16.2356 10.6249 16.2231 10.6324 16.2081 10.6336C16.095 9.71549 15.7331 8.87611 15.1919 8.18111C15.2031 8.17111 15.2175 8.16799 15.2287 8.15674L16.5544 6.83111C16.7994 6.58674 16.7987 6.19174 16.5544 5.94736C16.3094 5.70299 15.915 5.70299 15.6694 5.94736L14.3444 7.27236C14.3331 7.28361 14.33 7.29736 14.32 7.30924C13.6256 6.76736 12.7863 6.40549 11.8675 6.29236C11.8688 6.27861 11.8763 6.26486 11.8763 6.25049L11.8769 4.37549C11.8769 4.02986 11.5963 3.75049 11.2519 3.75049C10.905 3.75049 10.6256 4.02924 10.625 4.37611V6.24986C10.625 6.26424 10.6325 6.27799 10.6337 6.29174C9.715 6.40486 8.87562 6.76674 8.18062 7.30799C8.17062 7.29674 8.1675 7.28236 8.15687 7.27174L6.83125 5.94674C6.58688 5.70174 6.19187 5.70236 5.9475 5.94674C5.70312 6.19174 5.7025 6.58611 5.9475 6.83111L7.27313 8.15674C7.28375 8.16736 7.29812 8.17049 7.30937 8.18049C6.7675 8.87486 6.40562 9.71549 6.2925 10.6336C6.2775 10.6324 6.26437 10.6249 6.25 10.6249H4.375C4.02938 10.6249 3.75 10.9042 3.75 11.2499C3.75 11.5955 4.02938 11.8749 4.375 11.8749H6.25C6.26437 11.8749 6.2775 11.8674 6.29188 11.8661C6.405 12.7849 6.76688 13.6242 7.30875 14.3192C7.29688 14.3292 7.28313 14.3324 7.27188 14.3436L5.94625 15.6686C5.70125 15.9136 5.70125 16.3092 5.94625 16.5524C6.19125 16.798 6.585 16.7967 6.83125 16.5536L8.15625 15.228C8.1675 15.2167 8.17062 15.2024 8.18062 15.1911C8.875 15.7324 9.71438 16.0942 10.6331 16.2074C10.6325 16.223 10.625 16.2355 10.625 16.2511L10.6244 18.1249C10.6244 18.4711 10.9044 18.7511 11.2494 18.7499C11.5956 18.7499 11.8744 18.4705 11.8763 18.1249L11.8756 16.2511C11.8756 16.2355 11.8681 16.223 11.8669 16.208C12.785 16.0949 13.6244 15.733 14.3194 15.1911C14.3294 15.203 14.3325 15.2174 14.3438 15.2286L15.6687 16.5542C15.9137 16.7999 16.3094 16.7986 16.5525 16.5542C16.7975 16.3092 16.7969 15.9149 16.5531 15.6692L15.2281 14.3442C15.2169 14.333 15.2025 14.3299 15.1906 14.3199C15.7325 13.6255 16.0944 12.7855 16.2075 11.8674C16.2225 11.8686 16.235 11.8761 16.25 11.8761H18.125C18.4712 11.8761 18.7506 11.5961 18.75 11.2511C18.75 10.9049 18.4706 10.6261 18.1244 10.6249ZM11.25 14.9999C9.17938 14.9999 7.5 13.3205 7.5 11.2499C7.5 9.17924 9.17938 7.49986 11.25 7.49986C13.3206 7.49986 15 9.17924 15 11.2499C15 13.3205 13.3206 14.9999 11.25 14.9999Z" fill="#231F20"/>
</g>
<defs>
<clipPath id="clip0_179_258">
<rect width="40" height="40" fill="white"/>
</clipPath>
</defs>
</svg>
