<svg width="35" height="60" viewBox="0 0 35 60" fill="none" xmlns="http://www.w3.org/2000/svg">
<path d="M2.69325 33.3204C4.30549 30.7789 6.54233 28.7029 9.18568 27.2874V25.1337V24.2292C9.18568 22.2814 8.4473 19.9234 7.66555 17.427C6.77518 14.5837 5.85433 11.6438 5.85433 8.82619C5.85433 7.12852 6.61791 5.62573 7.85246 4.58594V0H9.66146V3.53151C10.3989 3.25342 11.2116 3.10015 12.0703 3.10015C14.3175 3.10015 16.2898 4.22325 17.3818 5.90229C18.4738 4.22325 20.4462 3.10015 22.6933 3.10015C23.5519 3.10015 24.3646 3.25342 25.1021 3.53151V0H26.9111V4.58594C28.1456 5.62573 28.9092 7.12852 28.9092 8.82619C28.9092 11.6699 27.9824 14.6331 27.0863 17.4986C26.3106 19.9785 25.5781 22.3209 25.5781 24.2291V25.1336V27.2873C28.2214 28.7027 30.458 30.7788 32.0703 33.3202C33.8324 36.098 34.7637 39.3128 34.7637 42.6171V59.9989H-2.67029e-05V42.6172C-0.000144958 39.313 0.931248 36.0981 2.69325 33.3204ZM27.1003 8.8263C27.1003 6.62978 25.1645 4.90926 22.6933 4.90926C20.2634 4.90926 18.2863 6.71087 18.2863 8.92556L18.286 9.83012H16.477V8.92556C16.477 6.71099 14.4999 4.90926 12.0701 4.90926C9.59888 4.90926 7.66309 6.62989 7.66309 8.8263C7.66309 11.3672 8.54175 14.173 9.39158 16.8864C10.1059 19.1672 10.7859 21.3386 10.9546 23.3247H23.8099C23.9795 21.3718 24.6527 19.2194 25.3599 16.9587C26.2156 14.2228 27.1003 11.3937 27.1003 8.8263ZM23.769 26.3826V25.1337H10.9946V27.2682H23.7643L23.761 26.3787L23.769 26.3826ZM25.0796 29.0771H9.68407C5.53746 31.43 2.75383 35.4709 2.0097 40.1061C2.92938 40.2509 3.52831 40.5656 4.07252 40.8523C4.72923 41.1984 5.24789 41.4716 6.39737 41.4716C7.54684 41.4716 8.06551 41.1984 8.72222 40.8523C9.45861 40.4642 10.2933 40.0244 11.8903 40.0244C13.4871 40.0244 14.3217 40.4642 15.0582 40.8523C15.7147 41.1984 16.2332 41.4716 17.3826 41.4716C18.5319 41.4716 19.0505 41.1984 19.7071 40.8523C20.4435 40.4642 21.2782 40.0244 22.875 40.0244C24.4717 40.0244 25.3063 40.4642 26.0427 40.8523C26.6993 41.1984 27.2179 41.4716 28.3671 41.4716C29.5163 41.4716 30.0349 41.1984 30.6915 40.8523C31.2356 40.5656 31.8344 40.2509 32.7538 40.1061C32.0098 35.4711 29.2258 31.43 25.0796 29.0771ZM1.8092 58.1899H32.9547V51.1365C32.3778 51.2399 31.9892 51.4442 31.5349 51.6837C30.7986 52.0718 29.9639 52.5116 28.3672 52.5116C26.7706 52.5116 25.9358 52.0718 25.1995 51.6837C24.5429 51.3376 24.0243 51.0643 22.8751 51.0643C21.7257 51.0643 21.2071 51.3376 20.5506 51.6837C19.8142 52.0718 18.9796 52.5116 17.3828 52.5116C15.786 52.5116 14.9515 52.0718 14.2151 51.6837C13.5586 51.3376 13.04 51.0643 11.8907 51.0643C10.7412 51.0643 10.2225 51.3376 9.56584 51.6837C8.82944 52.0718 7.99473 52.5116 6.3976 52.5116C4.80048 52.5116 3.966 52.0718 3.22949 51.6837C2.77493 51.4441 2.38622 51.2398 1.8092 51.1364V58.1899ZM1.80908 49.3094C2.84395 49.4377 3.48988 49.7763 4.07276 50.0834C4.72947 50.4294 5.24813 50.7027 6.3976 50.7027C7.54708 50.7027 8.06574 50.4294 8.72245 50.0834C9.45884 49.6953 10.2936 49.2555 11.8906 49.2555C13.4873 49.2555 14.3219 49.6953 15.0584 50.0834C15.7149 50.4294 16.2335 50.7027 17.3828 50.7027C18.5322 50.7027 19.0507 50.4294 19.7073 50.0834C20.4437 49.6953 21.2784 49.2555 22.8752 49.2555C24.472 49.2555 25.3066 49.6953 26.043 50.0834C26.6995 50.4294 27.2181 50.7027 28.3673 50.7027C29.5166 50.7027 30.0351 50.4294 30.6917 50.0834C31.2744 49.7762 31.9202 49.4377 32.9549 49.3094V42.6172C32.9549 42.3798 32.9476 42.1439 32.9373 41.9085C32.37 42.0128 31.9848 42.2155 31.5351 42.4525C30.7988 42.8406 29.9641 43.2804 28.3674 43.2804C26.7708 43.2804 25.9361 42.8406 25.1997 42.4525C24.5431 42.1064 24.0245 41.8332 22.8753 41.8332C21.726 41.8332 21.2073 42.1064 20.5508 42.4525C19.8144 42.8406 18.9798 43.2804 17.3831 43.2804C15.7863 43.2804 14.9517 42.8406 14.2153 42.4525C13.5588 42.1064 13.0403 41.8332 11.8909 41.8332C10.7414 41.8332 10.2228 42.1064 9.56607 42.4525C8.82967 42.8406 7.99496 43.2804 6.39784 43.2804C4.80071 43.2804 3.96624 42.8406 3.22973 42.4525C2.77985 42.2154 2.39455 42.0127 1.82701 41.9084C1.81635 42.1438 1.8092 42.3798 1.8092 42.6172V49.3094H1.80908Z" fill="black"/>
<path d="M20.1792 20.4741H21.9297V22.2831H20.1792V20.4741Z" fill="black"/>
<path d="M16.5063 20.4741H18.2568V22.2831H16.5063V20.4741Z" fill="black"/>
<path d="M12.8338 20.4741H14.5845V22.2831H12.8338V20.4741Z" fill="black"/>
<path d="M29.3613 55.5269H31.1118V57.3359H29.3613V55.5269Z" fill="black"/>
<path d="M25.688 55.5269H27.4385V57.3359H25.688V55.5269Z" fill="black"/>
<path d="M22.0156 55.5269H23.7661V57.3359H22.0156V55.5269Z" fill="black"/>
<path d="M18.3432 55.5269H20.0938V57.3359H18.3432V55.5269Z" fill="black"/>
<path d="M14.6698 55.5269H16.4204V57.3359H14.6698V55.5269Z" fill="black"/>
<path d="M10.9979 55.5269H12.7485V57.3359H10.9979V55.5269Z" fill="black"/>
<path d="M7.32516 55.5269H9.07568V57.3359H7.32516V55.5269Z" fill="black"/>
<path d="M3.65268 55.5269H5.40332V57.3359H3.65268V55.5269Z" fill="black"/>
</svg>
