<svg width="50" height="50" viewBox="0 0 50 50" fill="none" xmlns="http://www.w3.org/2000/svg">
<mask id="mask0_179_188" style="mask-type:luminance" maskUnits="userSpaceOnUse" x="-5" y="-4" width="58" height="58">
<path d="M-4.91064 53.5716H52.2322V-3.57129H-4.91064V53.5716Z" fill="white"/>
</mask>
<g mask="url(#mask0_179_188)">
<path d="M24.1073 35.9556C28.402 35.9556 31.8957 32.6484 31.8957 28.5823C31.8957 24.5172 28.402 21.21 24.1073 21.21C19.8127 21.21 16.3189 24.5172 16.3189 28.5823C16.3189 32.6484 19.8127 35.9556 24.1073 35.9556ZM24.1073 19.4243C29.3859 19.4243 33.6814 23.5332 33.6814 28.5823C33.6814 33.6323 29.3859 37.7413 24.1073 37.7413C18.8287 37.7413 14.5332 33.6323 14.5332 28.5823C14.5332 23.5332 18.8287 19.4243 24.1073 19.4243Z" fill="#231F20"/>
<path d="M16.6827 42.0097C20.5381 45.6802 26.8095 45.6802 30.6631 42.0097C30.8363 41.8454 31.0577 41.7642 31.2792 41.7642C31.514 41.7642 31.7497 41.857 31.9256 42.0409C32.2658 42.3981 32.2515 42.9633 31.8943 43.3034C27.3622 47.6177 19.9854 47.6204 15.4515 43.3034C15.0943 42.9633 15.08 42.3981 15.4202 42.0409C15.7613 41.6838 16.3265 41.6722 16.6827 42.0097Z" fill="#231F20"/>
<path d="M18.7553 41.2536C18.3982 40.9135 18.3839 40.3483 18.7249 39.992C18.8999 39.8072 19.1357 39.7144 19.3705 39.7144C19.5919 39.7144 19.8142 39.7965 19.9866 39.9617C22.0196 41.8974 25.3267 41.8983 27.3607 39.9608C27.7169 39.6215 28.2812 39.634 28.6232 39.992C28.9633 40.3483 28.9491 40.9144 28.5919 41.2545C25.8794 43.8376 21.4669 43.8385 18.7553 41.2536Z" fill="#231F20"/>
<path d="M33.3541 17.0509H13.9925C13.4996 17.0509 13.0996 16.6517 13.0996 16.158C13.0996 15.6642 13.4996 15.2651 13.9925 15.2651H33.3541C33.8478 15.2651 34.2469 15.6642 34.2469 16.158C34.2469 16.6517 33.8478 17.0509 33.3541 17.0509Z" fill="#231F20"/>
<path d="M30.1271 12.9532H17.219C16.7253 12.9532 16.3262 12.5541 16.3262 12.0603C16.3262 11.5666 16.7253 11.1675 17.219 11.1675H30.1271C30.6208 11.1675 31.0199 11.5666 31.0199 12.0603C31.0199 12.5541 30.6208 12.9532 30.1271 12.9532Z" fill="#231F20"/>
<path d="M28.753 5.68336C28.6092 5.52175 28.4065 5.42889 28.1833 5.41818H28.1824C25.1753 5.27979 22.1235 5.27979 19.1128 5.41818C18.8896 5.42889 18.6887 5.52175 18.544 5.68246C18.4128 5.83068 18.3467 6.01818 18.3592 6.21104C18.3869 6.61907 18.736 6.93782 19.1476 6.93782C19.1601 6.93782 19.1717 6.93782 19.1833 6.93693C22.1467 6.80121 25.1521 6.80121 28.1128 6.93693C28.5673 6.97354 28.9101 6.63068 28.9378 6.21104C28.9512 6.01818 28.8842 5.83068 28.753 5.68336ZM28.0315 8.72086C25.1244 8.58693 22.1744 8.58693 19.2646 8.72086C17.8798 8.78961 16.669 7.71014 16.5771 6.328C16.5324 5.653 16.7583 5.00032 17.2137 4.49229C17.6807 3.97086 18.3262 3.66639 19.0315 3.63425C20.5637 3.56461 22.1065 3.52979 23.6485 3.52979C25.1914 3.52979 26.7324 3.56461 28.2637 3.63425C28.9708 3.66639 29.6173 3.97086 30.0833 4.49229C30.5387 5.00032 30.7646 5.653 30.7199 6.328C30.6289 7.71103 29.4342 8.78157 28.0315 8.72086Z" fill="#231F20"/>
<path d="M41.518 30.3571H40.6251V36.6071H41.518V30.3571ZM38.8394 4.46429C38.8394 2.9875 37.6376 1.78571 36.1608 1.78571H11.1608C9.68403 1.78571 8.48225 2.9875 8.48225 4.46429V45.5357C8.48225 47.0125 9.68403 48.2143 11.1608 48.2143H36.1608C37.6376 48.2143 38.8394 47.0125 38.8394 45.5357V37.5V29.4643V4.46429ZM42.4108 38.3929H40.6251V45.5357C40.6251 47.9973 38.6224 50 36.1608 50H11.1608C8.69921 50 6.69653 47.9973 6.69653 45.5357V4.46429C6.69653 2.00268 8.69921 0 11.1608 0H36.1608C38.6224 0 40.6251 2.00268 40.6251 4.46429V28.5714H42.4108C42.9046 28.5714 43.3037 28.9705 43.3037 29.4643V37.5C43.3037 37.9937 42.9046 38.3929 42.4108 38.3929Z" fill="#231F20"/>
</g>
</svg>
