<svg width="45" height="40" viewBox="0 0 45 40" fill="none" xmlns="http://www.w3.org/2000/svg">
<path d="M9.86906 1.25563C9.67482 1.25563 9.51416 1.11594 9.51416 0.943281C9.51416 0.770547 9.66797 0.630859 9.8615 0.630859H9.86906C9.96226 0.630921 10.0516 0.663857 10.1175 0.722434C10.1834 0.781011 10.2205 0.860441 10.2205 0.943281C10.2204 1.02611 10.1834 1.10552 10.1175 1.16408C10.0516 1.22264 9.96224 1.25556 9.86906 1.25563ZM11.2749 1.25563C11.0805 1.25563 10.92 1.11594 10.92 0.943281C10.92 0.770547 11.0738 0.630859 11.2673 0.630859H11.2749C11.3681 0.630921 11.4574 0.663857 11.5233 0.722434C11.5892 0.781011 11.6263 0.860441 11.6263 0.943281C11.6263 1.02611 11.5892 1.10552 11.5233 1.16408C11.4574 1.22264 11.3681 1.25556 11.2749 1.25563ZM12.6807 1.25563C12.4864 1.25563 12.3258 1.11594 12.3258 0.943281C12.3258 0.770547 12.4795 0.630859 12.6731 0.630859H12.6807C12.7739 0.630921 12.8632 0.663857 12.9291 0.722434C12.995 0.781011 13.0321 0.860441 13.0322 0.943281C13.0321 1.02611 12.995 1.10552 12.9291 1.16408C12.8632 1.22264 12.7739 1.25556 12.6807 1.25563Z" fill="black"/>
<path d="M36.5582 1.88031H8.44181C8.39564 1.88033 8.34993 1.87227 8.30728 1.85657C8.26462 1.84088 8.22587 1.81787 8.19322 1.78885C8.16058 1.75984 8.13469 1.72539 8.11704 1.68747C8.09938 1.64956 8.09031 1.60892 8.09033 1.56789V0.943125C8.09033 0.426328 8.56327 0.00585938 9.14467 0.00585938H35.8552C36.4366 0.00585938 36.9096 0.426328 36.9096 0.943125V1.56789C36.9096 1.60892 36.9006 1.64955 36.8829 1.68747C36.8653 1.72538 36.8394 1.75983 36.8067 1.78885C36.7741 1.81786 36.7354 1.84088 36.6927 1.85657C36.6501 1.87227 36.6044 1.88033 36.5582 1.88031ZM8.79328 1.25547H36.2068V0.943125C36.2066 0.860303 36.1695 0.780921 36.1036 0.722364C36.0377 0.663807 35.9484 0.630848 35.8552 0.630703H9.14467C9.05151 0.630868 8.96222 0.663837 8.89634 0.722392C8.83047 0.780947 8.79338 0.860316 8.79319 0.943125V1.25547H8.79328Z" fill="black"/>
<path d="M36.5582 39.9941H8.44181C8.39564 39.9941 8.34993 39.986 8.30728 39.9703C8.26462 39.9546 8.22587 39.9316 8.19322 39.9026C8.16058 39.8736 8.13469 39.8391 8.11704 39.8012C8.09938 39.7633 8.09031 39.7227 8.09033 39.6816V1.56828C8.09031 1.52725 8.09938 1.48661 8.11704 1.4487C8.13469 1.41078 8.16058 1.37634 8.19322 1.34732C8.22587 1.3183 8.26462 1.29529 8.30728 1.2796C8.34993 1.26391 8.39564 1.25584 8.44181 1.25586H36.5582C36.6044 1.25584 36.6501 1.26391 36.6927 1.2796C36.7354 1.2953 36.7741 1.31831 36.8067 1.34732C36.8394 1.37634 36.8653 1.41079 36.8829 1.4487C36.9006 1.48662 36.9096 1.52725 36.9096 1.56828V39.6816C36.9096 39.7227 36.9006 39.7633 36.8829 39.8012C36.8653 39.8391 36.8394 39.8736 36.8067 39.9026C36.7741 39.9316 36.7354 39.9546 36.6927 39.9703C36.6501 39.986 36.6044 39.9941 36.5582 39.9941ZM8.79328 39.3692H36.2068V1.8807H8.79328V39.3692Z" fill="black"/>
<path d="M22.5 31.5589C20.3686 31.5589 18.634 30.0171 18.634 28.1225C18.634 26.2279 20.3686 24.686 22.5 24.686C24.6313 24.686 26.3659 26.2279 26.3659 28.1225C26.3659 30.0171 24.6313 31.5589 22.5 31.5589ZM22.5 25.3108C20.7558 25.3108 19.3369 26.5721 19.3369 28.1224C19.3369 29.6728 20.7558 30.934 22.5 30.934C24.2443 30.934 25.663 29.6728 25.663 28.1224C25.663 26.5721 24.2443 25.3108 22.5 25.3108Z" fill="black"/>
<path d="M21.7971 29.3723C21.7365 29.3723 21.6769 29.3584 21.6242 29.332C21.57 29.3047 21.5249 29.2652 21.4936 29.2174C21.4622 29.1696 21.4457 29.1153 21.4457 29.0599V27.1855C21.4457 27.0732 21.5136 26.9689 21.6242 26.9134C21.6782 26.8862 21.7394 26.8722 21.8016 26.873C21.8637 26.8737 21.9245 26.8891 21.9777 26.9177L23.7349 27.8549C23.7872 27.8825 23.8304 27.9217 23.8603 27.9687C23.8903 28.0157 23.906 28.0688 23.9059 28.1228C23.906 28.1768 23.8903 28.2299 23.8603 28.2769C23.8303 28.3238 23.7871 28.363 23.7349 28.3906L21.9777 29.3278C21.9232 29.357 21.8607 29.3724 21.7971 29.3723ZM22.1486 27.7371V28.5083L22.8713 28.1227L22.1486 27.7371ZM14.4166 30.6219C12.8659 30.6219 11.605 29.501 11.605 28.1228C11.605 26.7443 12.8659 25.6235 14.4166 25.6235C15.9673 25.6235 17.2282 26.7444 17.2282 28.1228C17.2283 29.501 15.9673 30.6219 14.4166 30.6219ZM14.4166 26.2483C13.2538 26.2483 12.3078 27.0892 12.3078 28.1228C12.3078 29.1563 13.2537 29.9971 14.4166 29.9971C15.5794 29.9971 16.5254 29.1563 16.5254 28.1228C16.5254 27.0891 15.5794 26.2483 14.4166 26.2483Z" fill="black"/>
<path d="M13.3621 28.4349C13.2926 28.4349 13.2246 28.4166 13.1667 28.3823C13.1089 28.348 13.0638 28.2992 13.0372 28.2421C13.0106 28.185 13.0037 28.1221 13.0173 28.0615C13.0309 28.0009 13.0644 27.9452 13.1136 27.9016L13.8166 27.2768C13.8492 27.2478 13.8879 27.2248 13.9306 27.2091C13.9732 27.1934 14.0189 27.1853 14.0651 27.1853C14.1112 27.1853 14.1569 27.1934 14.1995 27.2091C14.2422 27.2248 14.2809 27.2478 14.3136 27.2768C14.3462 27.3058 14.3721 27.3402 14.3897 27.3781C14.4074 27.416 14.4165 27.4566 14.4165 27.4976C14.4165 27.5387 14.4074 27.5793 14.3898 27.6172C14.3721 27.6551 14.3462 27.6895 14.3136 27.7185L13.6107 28.3433C13.578 28.3724 13.5393 28.3954 13.4966 28.4111C13.454 28.4268 13.4083 28.4349 13.3621 28.4349Z" fill="black"/>
<path d="M14.0652 29.0597C14.019 29.0597 13.9733 29.0517 13.9306 29.036C13.888 29.0203 13.8492 28.9972 13.8166 28.9681L13.1137 28.3433C13.0811 28.3143 13.0552 28.2799 13.0375 28.242C13.0198 28.2041 13.0107 28.1635 13.0107 28.1224C13.0107 28.0814 13.0198 28.0408 13.0375 28.0029C13.0552 27.965 13.0811 27.9306 13.1137 27.9016C13.1463 27.8726 13.1851 27.8496 13.2277 27.8338C13.2703 27.8181 13.316 27.8101 13.3622 27.8101C13.4083 27.8101 13.454 27.8181 13.4966 27.8338C13.5393 27.8496 13.578 27.8726 13.6106 27.9016L14.3136 28.5264C14.3628 28.5701 14.3963 28.6257 14.4099 28.6863C14.4235 28.747 14.4166 28.8098 14.39 28.8669C14.3634 28.924 14.3183 28.9728 14.2605 29.0071C14.2027 29.0414 14.1347 29.0597 14.0652 29.0597ZM14.7681 28.4349C14.6985 28.4349 14.6305 28.4166 14.5727 28.3823C14.5149 28.348 14.4698 28.2992 14.4432 28.2421C14.4166 28.185 14.4096 28.1221 14.4232 28.0615C14.4368 28.0009 14.4704 27.9452 14.5196 27.9016L15.2225 27.2768C15.2552 27.2478 15.2939 27.2248 15.3365 27.2091C15.3792 27.1934 15.4249 27.1853 15.471 27.1853C15.5172 27.1853 15.5629 27.1934 15.6055 27.2091C15.6481 27.2248 15.6869 27.2478 15.7195 27.2768C15.7522 27.3058 15.778 27.3402 15.7957 27.3781C15.8134 27.416 15.8225 27.4566 15.8225 27.4976C15.8225 27.5387 15.8134 27.5793 15.7957 27.6172C15.7781 27.6551 15.7522 27.6895 15.7196 27.7185L15.0166 28.3433C14.984 28.3724 14.9453 28.3954 14.9026 28.4111C14.86 28.4268 14.8142 28.4349 14.7681 28.4349Z" fill="black"/>
<path d="M15.471 29.0599C15.4248 29.06 15.3791 29.0519 15.3364 29.0362C15.2938 29.0205 15.255 28.9974 15.2224 28.9684L14.5195 28.3435C14.4868 28.3145 14.4609 28.2801 14.4433 28.2422C14.4256 28.2043 14.4165 28.1637 14.4165 28.1227C14.4165 28.0817 14.4256 28.041 14.4433 28.0031C14.4609 27.9652 14.4868 27.9308 14.5195 27.9018C14.5521 27.8728 14.5908 27.8498 14.6334 27.8341C14.6761 27.8184 14.7218 27.8103 14.7679 27.8103C14.8141 27.8103 14.8598 27.8184 14.9024 27.8341C14.945 27.8498 14.9838 27.8728 15.0164 27.9018L15.7193 28.5267C15.7685 28.5703 15.8021 28.626 15.8157 28.6866C15.8293 28.7472 15.8223 28.81 15.7958 28.8671C15.7692 28.9242 15.7241 28.973 15.6663 29.0074C15.6085 29.0417 15.5405 29.06 15.471 29.0599ZM30.5836 30.6219C29.0327 30.6219 27.772 29.501 27.772 28.1228C27.772 26.7443 29.0328 25.6235 30.5836 25.6235C32.1342 25.6235 33.3952 26.7444 33.3952 28.1228C33.3952 29.501 32.1341 30.6219 30.5836 30.6219ZM30.5836 26.2483C29.4208 26.2483 28.4747 27.0892 28.4747 28.1228C28.4747 29.1563 29.4208 29.9971 30.5836 29.9971C31.7464 29.9971 32.6923 29.1563 32.6923 28.1228C32.6923 27.0891 31.7464 26.2483 30.5836 26.2483Z" fill="black"/>
<path d="M30.9349 29.0597C30.8654 29.0597 30.7975 29.0414 30.7397 29.007C30.6819 28.9727 30.6369 28.9239 30.6103 28.8669C30.5837 28.8098 30.5767 28.747 30.5902 28.6864C30.6038 28.6258 30.6372 28.5701 30.6864 28.5264L31.3893 27.9016C31.4219 27.8726 31.4607 27.8495 31.5033 27.8338C31.5459 27.8181 31.5916 27.8101 31.6378 27.8101C31.6839 27.8101 31.7296 27.8181 31.7723 27.8338C31.8149 27.8495 31.8536 27.8726 31.8863 27.9016C31.9189 27.9306 31.9448 27.965 31.9625 28.0029C31.9801 28.0408 31.9892 28.0814 31.9892 28.1224C31.9892 28.1635 31.9801 28.2041 31.9625 28.242C31.9448 28.2799 31.9189 28.3143 31.8863 28.3433L31.1835 28.9681C31.1509 28.9972 31.1121 29.0202 31.0695 29.036C31.0268 29.0517 30.9811 29.0597 30.9349 29.0597Z" fill="black"/>
<path d="M31.6378 28.435C31.5917 28.435 31.5459 28.427 31.5033 28.4112C31.4606 28.3955 31.4219 28.3725 31.3893 28.3434L30.6863 27.7187C30.653 27.6898 30.6265 27.6553 30.6083 27.6172C30.5901 27.5792 30.5806 27.5383 30.5803 27.4969C30.58 27.4556 30.589 27.4146 30.6067 27.3763C30.6244 27.3381 30.6504 27.3033 30.6833 27.2741C30.7162 27.2448 30.7553 27.2217 30.7984 27.206C30.8414 27.1903 30.8875 27.1824 30.9341 27.1826C30.9806 27.1829 31.0266 27.1914 31.0694 27.2076C31.1122 27.2237 31.151 27.2473 31.1835 27.2769L31.8862 27.9017C31.9354 27.9454 31.969 28.001 31.9826 28.0616C31.9962 28.1222 31.9892 28.1851 31.9626 28.2422C31.936 28.2993 31.891 28.3481 31.8332 28.3824C31.7753 28.4167 31.7074 28.435 31.6378 28.435Z" fill="black"/>
<path d="M29.5292 29.0597C29.4596 29.0598 29.3916 29.0415 29.3338 29.0072C29.2759 28.9729 29.2309 28.9241 29.2042 28.867C29.1776 28.8098 29.1707 28.747 29.1843 28.6864C29.1979 28.6258 29.2314 28.5701 29.2806 28.5264L29.9836 27.9016C30.0162 27.8726 30.0549 27.8495 30.0976 27.8338C30.1402 27.8181 30.1859 27.8101 30.232 27.8101C30.2782 27.8101 30.3239 27.8181 30.3665 27.8338C30.4091 27.8495 30.4479 27.8726 30.4805 27.9016C30.5131 27.9306 30.539 27.965 30.5567 28.0029C30.5744 28.0408 30.5835 28.0814 30.5835 28.1224C30.5835 28.1635 30.5744 28.2041 30.5567 28.242C30.539 28.2799 30.5131 28.3143 30.4805 28.3433L29.7776 28.9681C29.745 28.9972 29.7063 29.0202 29.6636 29.0359C29.621 29.0516 29.5753 29.0597 29.5292 29.0597Z" fill="black"/>
<path d="M30.232 28.4349C30.1859 28.4349 30.1402 28.4268 30.0975 28.4111C30.0549 28.3954 30.0162 28.3724 29.9836 28.3433L29.2807 27.7185C29.248 27.6895 29.2222 27.6551 29.2045 27.6172C29.1868 27.5793 29.1777 27.5387 29.1777 27.4977C29.1777 27.4567 29.1868 27.416 29.2045 27.3781C29.2222 27.3402 29.248 27.3058 29.2807 27.2768C29.3133 27.2478 29.352 27.2248 29.3947 27.2091C29.4373 27.1934 29.483 27.1853 29.5292 27.1853C29.5753 27.1853 29.621 27.1934 29.6636 27.2091C29.7063 27.2248 29.745 27.2478 29.7776 27.2768L30.4806 27.9016C30.5298 27.9452 30.5633 28.0009 30.5769 28.0615C30.5905 28.1222 30.5836 28.185 30.557 28.2421C30.5303 28.2992 30.4852 28.348 30.4274 28.3823C30.3696 28.4167 30.3016 28.4349 30.232 28.4349Z" fill="black"/>
<path d="M33.7466 23.749H11.2536C11.2074 23.749 11.1617 23.7409 11.119 23.7252C11.0764 23.7095 11.0376 23.6865 11.005 23.6575C10.9724 23.6285 10.9465 23.594 10.9288 23.5561C10.9112 23.5182 10.9021 23.4776 10.9021 23.4365V22.1869C10.9021 22.1459 10.9112 22.1053 10.9288 22.0673C10.9465 22.0294 10.9724 21.995 11.005 21.966C11.0376 21.937 11.0764 21.9139 11.119 21.8983C11.1617 21.8826 11.2074 21.8745 11.2536 21.8745H33.7466C33.7928 21.8745 33.8385 21.8826 33.8811 21.8983C33.9238 21.9139 33.9625 21.937 33.9952 21.966C34.0278 21.995 34.0537 22.0294 34.0713 22.0674C34.089 22.1053 34.0981 22.1459 34.098 22.1869V23.4365C34.0981 23.4776 34.089 23.5182 34.0714 23.5561C34.0537 23.5941 34.0278 23.6285 33.9952 23.6575C33.9626 23.6865 33.9238 23.7096 33.8812 23.7252C33.8385 23.7409 33.7928 23.749 33.7466 23.749ZM11.605 23.1242H33.3952V22.4994H11.605V23.1242Z" fill="black"/>
<path d="M21.5774 23.7489C21.5079 23.749 21.4399 23.7307 21.3821 23.6964C21.3242 23.662 21.2792 23.6132 21.2526 23.5561C21.226 23.499 21.219 23.4362 21.2326 23.3756C21.2462 23.315 21.2797 23.2593 21.329 23.2156L22.7349 21.966C22.7675 21.937 22.8062 21.914 22.8489 21.8983C22.8915 21.8826 22.9372 21.8745 22.9833 21.8745C23.0295 21.8745 23.0752 21.8826 23.1178 21.8983C23.1604 21.914 23.1992 21.937 23.2318 21.966C23.2644 21.995 23.2903 22.0295 23.308 22.0674C23.3257 22.1052 23.3347 22.1459 23.3347 22.1869C23.3347 22.2279 23.3257 22.2685 23.308 22.3064C23.2903 22.3443 23.2644 22.3787 23.2318 22.4077L21.8259 23.6574C21.7933 23.6864 21.7546 23.7095 21.712 23.7252C21.6693 23.7409 21.6236 23.749 21.5774 23.7489Z" fill="black"/>
<path d="M33.7466 22.4992H11.2536C11.2074 22.4992 11.1617 22.4911 11.119 22.4754C11.0764 22.4597 11.0376 22.4367 11.005 22.4077C10.9724 22.3787 10.9465 22.3443 10.9288 22.3063C10.9112 22.2684 10.9021 22.2278 10.9021 22.1868V4.0673C10.9021 4.02627 10.9112 3.98564 10.9288 3.94772C10.9465 3.90981 10.9724 3.87536 11.005 3.84634C11.0376 3.81733 11.0764 3.79432 11.119 3.77862C11.1617 3.76293 11.2074 3.75486 11.2536 3.75488H33.7466C33.7928 3.75486 33.8385 3.76293 33.8811 3.77862C33.9238 3.79432 33.9625 3.81733 33.9952 3.84635C34.0278 3.87536 34.0537 3.90981 34.0713 3.94773C34.089 3.98564 34.0981 4.02627 34.098 4.0673V22.1868C34.0981 22.2278 34.089 22.2684 34.0713 22.3063C34.0537 22.3442 34.0278 22.3787 33.9952 22.4077C33.9625 22.4367 33.9238 22.4597 33.8811 22.4754C33.8385 22.4911 33.7928 22.4992 33.7466 22.4992ZM11.605 21.8743H33.3952V4.3798H11.605V21.8743Z" fill="black"/>
<path d="M25.3117 34.3706H11.9565C11.9103 34.3706 11.8646 34.3626 11.8219 34.3469C11.7793 34.3312 11.7405 34.3082 11.7079 34.2792C11.6752 34.2502 11.6493 34.2158 11.6317 34.1778C11.614 34.1399 11.605 34.0993 11.605 34.0583C11.605 34.0172 11.614 33.9766 11.6317 33.9387C11.6493 33.9008 11.6752 33.8663 11.7079 33.8373C11.7405 33.8083 11.7793 33.7853 11.8219 33.7696C11.8646 33.7539 11.9103 33.7458 11.9565 33.7458H25.3117C25.3579 33.7458 25.4036 33.7539 25.4462 33.7696C25.4889 33.7853 25.5276 33.8083 25.5603 33.8373C25.5929 33.8663 25.6188 33.9008 25.6364 33.9387C25.6541 33.9766 25.6631 34.0172 25.6631 34.0583C25.6631 34.0993 25.6541 34.1399 25.6364 34.1778C25.6188 34.2157 25.5929 34.2502 25.5602 34.2792C25.5276 34.3082 25.4889 34.3312 25.4462 34.3469C25.4036 34.3626 25.3579 34.3706 25.3117 34.3706Z" fill="black"/>
<path d="M30.232 38.4318C30.1388 38.4317 30.0494 38.3988 29.9836 38.3402C29.9177 38.2816 29.8806 38.2022 29.8806 38.1193V36.245C29.8806 36.1265 29.9561 36.0186 30.0749 35.9655C30.1334 35.94 30.1986 35.9292 30.2635 35.9344C30.3284 35.9395 30.3904 35.9604 30.4429 35.9948L31.8486 36.932C31.9372 36.9912 31.9894 37.084 31.9894 37.1822C31.9894 37.2804 31.9372 37.3731 31.8486 37.4323L30.4429 38.3695C30.3819 38.4098 30.308 38.4317 30.232 38.4318ZM30.5836 36.8697V37.4946L31.0524 37.1822L30.5836 36.8697Z" fill="black"/>
<path d="M25.3117 37.4947H11.9565C11.7622 37.4947 11.605 37.355 11.605 37.1823C11.605 37.0096 11.7622 36.8699 11.9565 36.8699H25.3117C25.506 36.8699 25.6631 37.0096 25.6631 37.1823C25.6631 37.355 25.506 37.4947 25.3117 37.4947Z" fill="black"/>
<path d="M30.232 34.9953C30.1858 34.9953 30.1401 34.9872 30.0975 34.9715C30.0549 34.9558 30.0161 34.9328 29.9835 34.9038C29.9508 34.8748 29.925 34.8404 29.9073 34.8024C29.8897 34.7645 29.8806 34.7239 29.8806 34.6829V33.4333C29.8806 33.3922 29.8897 33.3516 29.9073 33.3137C29.925 33.2758 29.9508 33.2414 29.9835 33.2123C30.0161 33.1833 30.0549 33.1603 30.0975 33.1446C30.1401 33.1289 30.1858 33.1208 30.232 33.1208C30.4263 33.1208 30.5836 33.2606 30.5836 33.4333V34.6829C30.5836 34.7239 30.5745 34.7646 30.5568 34.8025C30.5392 34.8404 30.5133 34.8749 30.4806 34.9039C30.448 34.9329 30.4092 34.9559 30.3666 34.9716C30.3239 34.9873 30.2782 34.9953 30.232 34.9953Z" fill="black"/>
<path d="M31.6379 34.9953C31.4436 34.9953 31.2864 34.8555 31.2864 34.6829V33.4333C31.2864 33.3922 31.2954 33.3516 31.3131 33.3137C31.3308 33.2758 31.3567 33.2413 31.3893 33.2123C31.422 33.1833 31.4607 33.1603 31.5034 33.1446C31.546 33.1289 31.5918 33.1208 31.6379 33.1208C31.6841 33.1208 31.7298 33.1289 31.7724 33.1446C31.8151 33.1603 31.8538 33.1833 31.8865 33.2123C31.9191 33.2414 31.945 33.2758 31.9626 33.3137C31.9803 33.3516 31.9894 33.3922 31.9893 33.4333V34.6829C31.9894 34.7239 31.9803 34.7645 31.9626 34.8024C31.945 34.8404 31.9191 34.8748 31.8865 34.9038C31.8538 34.9328 31.8151 34.9558 31.7724 34.9715C31.7298 34.9872 31.6841 34.9953 31.6379 34.9953Z" fill="black"/>
<path d="M30.9349 22.487H14.0651C14.0189 22.487 13.9732 22.4789 13.9306 22.4632C13.8879 22.4475 13.8492 22.4245 13.8165 22.3955C13.7839 22.3665 13.758 22.332 13.7403 22.2941C13.7227 22.2562 13.7136 22.2156 13.7136 22.1746C13.7136 20.9823 14.4269 20.5113 15.659 20.1013C15.9006 20.0213 16.2281 19.942 16.5926 19.8542C17.6854 19.5912 19.337 19.1939 19.337 18.4379C19.337 18.2653 19.4941 18.1255 19.6884 18.1255C19.8828 18.1255 20.0399 18.2653 20.0399 18.4379C20.0399 19.6723 18.1536 20.1257 16.7766 20.457C16.4361 20.5394 16.13 20.612 15.9048 20.687C14.9068 21.0189 14.5278 21.3008 14.4385 21.8621H30.5616C30.4723 21.3008 30.0935 21.0189 29.0953 20.687C28.8702 20.612 28.564 20.5388 28.2229 20.457C26.8458 20.1257 24.9603 19.6717 24.9603 18.4379C24.9603 18.2653 25.1173 18.1255 25.3117 18.1255C25.506 18.1255 25.6631 18.2653 25.6631 18.4379C25.6631 19.1933 27.3139 19.5912 28.4069 19.8535C28.772 19.942 29.1001 20.0213 29.3411 20.1013C30.5733 20.5113 31.2864 20.9823 31.2864 22.1746C31.2864 22.2156 31.2773 22.2562 31.2597 22.2941C31.242 22.332 31.2161 22.3665 31.1835 22.3955C31.1509 22.4245 31.1121 22.4475 31.0694 22.4632C31.0268 22.4789 30.9811 22.487 30.9349 22.487Z" fill="black"/>
<path d="M19.6883 18.7502C19.6421 18.7502 19.5964 18.7421 19.5538 18.7264C19.5111 18.7107 19.4724 18.6877 19.4397 18.6587C19.4071 18.6297 19.3812 18.5953 19.3635 18.5573C19.3459 18.5194 19.3368 18.4788 19.3368 18.4378V16.9617C19.3368 16.7891 19.494 16.6493 19.6883 16.6493C19.8826 16.6493 20.0398 16.7891 20.0398 16.9617V18.4378C20.0398 18.4788 20.0307 18.5194 20.0131 18.5573C19.9954 18.5953 19.9695 18.6297 19.9369 18.6587C19.9043 18.6877 19.8655 18.7107 19.8228 18.7264C19.7802 18.7421 19.7345 18.7502 19.6883 18.7502ZM25.3116 18.7502C25.2654 18.7502 25.2197 18.7421 25.177 18.7265C25.1344 18.7108 25.0956 18.6878 25.063 18.6587C25.0303 18.6297 25.0045 18.5953 24.9868 18.5573C24.9692 18.5194 24.9601 18.4788 24.9602 18.4378V16.9257C24.9602 16.7531 25.1172 16.6134 25.3116 16.6134C25.5059 16.6134 25.6629 16.7531 25.6629 16.9257V18.4378C25.663 18.4788 25.6539 18.5194 25.6363 18.5573C25.6186 18.5953 25.5928 18.6297 25.5601 18.6587C25.5275 18.6878 25.4887 18.7108 25.4461 18.7265C25.4034 18.7421 25.3577 18.7502 25.3116 18.7502ZM16.1737 20.5935C16.1276 20.5936 16.0819 20.5855 16.0392 20.5698C15.9966 20.5541 15.9578 20.5311 15.9252 20.5021C15.8925 20.4731 15.8666 20.4386 15.849 20.4007C15.8313 20.3628 15.8222 20.3221 15.8223 20.2811V11.5649C15.8222 11.5238 15.8313 11.4832 15.849 11.4453C15.8666 11.4074 15.8925 11.3729 15.9252 11.3439C15.9578 11.3149 15.9966 11.2919 16.0392 11.2762C16.0819 11.2605 16.1276 11.2524 16.1737 11.2524C16.2199 11.2524 16.2656 11.2605 16.3083 11.2762C16.3509 11.2919 16.3897 11.3149 16.4223 11.3439C16.455 11.3729 16.4809 11.4074 16.4985 11.4453C16.5162 11.4832 16.5252 11.5238 16.5252 11.5649V20.281C16.5252 20.4538 16.368 20.5935 16.1737 20.5935ZM28.8248 20.5935C28.6305 20.5935 28.4732 20.4538 28.4732 20.2811L28.476 11.5649C28.4759 11.5239 28.485 11.4833 28.5027 11.4453C28.5203 11.4074 28.5462 11.373 28.5789 11.344C28.6115 11.3149 28.6503 11.2919 28.693 11.2762C28.7356 11.2605 28.7814 11.2525 28.8275 11.2525C28.8737 11.2525 28.9194 11.2606 28.962 11.2763C29.0047 11.292 29.0434 11.315 29.0761 11.344C29.1087 11.373 29.1346 11.4075 29.1522 11.4454C29.1699 11.4833 29.1789 11.5239 29.1789 11.5649L29.1762 20.2811C29.1762 20.3221 29.1671 20.3628 29.1495 20.4007C29.1318 20.4386 29.106 20.473 29.0733 20.502C29.0407 20.5311 29.002 20.5541 28.9593 20.5698C28.9167 20.5855 28.871 20.5935 28.8248 20.5935Z" fill="black"/>
<path d="M28.8275 11.8775C28.6332 11.8775 28.476 11.7378 28.476 11.5651C28.476 10.3192 28.045 6.25424 22.4999 6.25424C17.5988 6.25424 16.5252 10.0879 16.5252 11.5651C16.5252 11.6061 16.5162 11.6468 16.4985 11.6847C16.4809 11.7226 16.455 11.757 16.4223 11.7861C16.3897 11.8151 16.3509 11.8381 16.3083 11.8538C16.2656 11.8695 16.2199 11.8775 16.1737 11.8775C16.1276 11.8775 16.0819 11.8695 16.0392 11.8538C15.9966 11.8381 15.9578 11.8151 15.9252 11.7861C15.8925 11.757 15.8666 11.7226 15.849 11.6847C15.8313 11.6468 15.8222 11.6061 15.8223 11.5651C15.8223 9.91393 17.0221 5.62939 22.4999 5.62939C27.4244 5.62939 29.1789 8.69541 29.1789 11.5651C29.1789 11.6061 29.1699 11.6468 29.1522 11.6847C29.1346 11.7226 29.1087 11.757 29.0761 11.786C29.0434 11.815 29.0047 11.8381 28.962 11.8538C28.9194 11.8695 28.8737 11.8775 28.8275 11.8775ZM22.4999 18.7504C21.0186 18.7504 17.721 16.4721 17.2769 13.4804C17.2648 13.3982 17.2899 13.3151 17.3466 13.2494C17.4034 13.1836 17.4871 13.1406 17.5796 13.1296C17.769 13.1064 17.9489 13.2266 17.9743 13.3986C18.3716 16.0797 21.3907 18.1256 22.4999 18.1256C23.7513 18.1256 27.0688 15.6776 27.0688 12.7366C27.0688 12.6956 27.0779 12.6549 27.0955 12.617C27.1132 12.5791 27.1391 12.5447 27.1717 12.5156C27.2043 12.4866 27.2431 12.4636 27.2857 12.4479C27.3284 12.4322 27.3741 12.4242 27.4202 12.4242C27.6146 12.4242 27.7718 12.5639 27.7718 12.7366C27.7718 15.9052 24.1913 18.7504 22.4999 18.7504Z" fill="black"/>
<path d="M16.1732 13.1274C16.0904 13.1272 16.0104 13.1011 15.9471 13.0537C15.8839 13.0062 15.8414 12.9405 15.8272 12.8681C15.8116 12.7864 15.8331 12.7025 15.8869 12.6348C15.9406 12.5671 16.0224 12.5211 16.1142 12.5068C16.189 12.4958 23.5936 11.3268 27.2441 7.61087C27.3057 7.54873 27.3924 7.51072 27.4853 7.50512C27.5783 7.49951 27.6699 7.52677 27.7404 7.58095C27.8105 7.63552 27.8535 7.71261 27.8598 7.79531C27.8661 7.878 27.8353 7.95954 27.774 8.02204C23.9573 11.907 16.5466 13.0749 16.2336 13.1231C16.213 13.1262 16.1931 13.1274 16.1732 13.1274Z" fill="black"/>
<path d="M28.8255 12.5021C28.8068 12.5021 28.7882 12.5008 28.7698 12.4984C26.0275 12.1122 24.3966 10.2359 24.3286 10.1566C24.3007 10.124 24.2803 10.0867 24.2686 10.0471C24.2569 10.0074 24.2541 9.96607 24.2603 9.92544C24.2666 9.8848 24.2818 9.84566 24.305 9.81025C24.3283 9.77484 24.3592 9.74384 24.3959 9.71904C24.4326 9.69407 24.4744 9.67578 24.519 9.66523C24.5636 9.65469 24.6102 9.65209 24.6559 9.6576C24.7017 9.6631 24.7457 9.6766 24.7856 9.69731C24.8254 9.71802 24.8603 9.74553 24.8881 9.77826C24.9033 9.796 26.423 11.5349 28.8798 11.8809C28.9718 11.894 29.0542 11.939 29.109 12.006C29.1638 12.073 29.1865 12.1566 29.1721 12.2384C29.159 12.3118 29.1169 12.3786 29.0533 12.4269C28.9898 12.4752 28.9091 12.5019 28.8255 12.5021ZM17.5795 22.4869C17.5333 22.4869 17.4876 22.4788 17.445 22.4631C17.4023 22.4474 17.3636 22.4244 17.3309 22.3954C17.2983 22.3664 17.2724 22.3319 17.2547 22.294C17.2371 22.2561 17.228 22.2155 17.228 22.1744V19.9284C17.228 19.8874 17.2371 19.8468 17.2547 19.8088C17.2724 19.7709 17.2983 19.7365 17.3309 19.7075C17.3636 19.6784 17.4023 19.6554 17.445 19.6397C17.4876 19.624 17.5333 19.616 17.5795 19.616C17.6257 19.616 17.6714 19.624 17.714 19.6397C17.7567 19.6554 17.7954 19.6784 17.8281 19.7075C17.8607 19.7365 17.8866 19.7709 17.9043 19.8088C17.9219 19.8468 17.931 19.8874 17.931 19.9284V22.1744C17.931 22.2155 17.9219 22.2561 17.9043 22.294C17.8866 22.3319 17.8608 22.3664 17.8281 22.3954C17.7955 22.4244 17.7567 22.4474 17.714 22.4631C17.6714 22.4788 17.6257 22.4869 17.5795 22.4869ZM27.4202 22.499C27.374 22.4991 27.3283 22.491 27.2857 22.4753C27.243 22.4596 27.2043 22.4366 27.1716 22.4076C27.139 22.3785 27.1131 22.3441 27.0955 22.3062C27.0778 22.2683 27.0688 22.2276 27.0688 22.1866V19.9284C27.0688 19.8874 27.0778 19.8468 27.0955 19.8089C27.1131 19.7709 27.139 19.7365 27.1716 19.7075C27.2043 19.6785 27.243 19.6555 27.2857 19.6398C27.3283 19.6241 27.374 19.616 27.4202 19.616C27.6145 19.616 27.7717 19.7558 27.7717 19.9284V22.1866C27.7718 22.2277 27.7627 22.2683 27.745 22.3062C27.7274 22.3441 27.7015 22.3786 27.6688 22.4076C27.6362 22.4366 27.5974 22.4596 27.5547 22.4753C27.5121 22.491 27.4663 22.4991 27.4202 22.499Z" fill="black"/>
</svg>
