<svg width="41" height="41" viewBox="0 0 41 41" fill="none" xmlns="http://www.w3.org/2000/svg">
<path fill-rule="evenodd" clip-rule="evenodd" d="M5.9008 1.32705L1.64024 4.52371C1.22888 4.88857 0.996803 5.39819 1.00007 5.93057C1.00306 6.46293 1.24085 6.97014 1.65656 7.33072L4.89416 10.9811L15.9101 23.3602C16.103 23.5681 16.3596 23.7142 16.6447 23.7781L22.3581 24.9983C23.1076 25.0337 23.7603 24.5202 23.8572 23.8191V18.2871C23.8379 18.0202 23.7239 17.7675 23.5334 17.5693L12.7215 6.05154L9.01052 1.87563C8.27649 0.968878 6.93356 0.731987 5.9008 1.32705Z" fill="black" stroke="#B56D94" stroke-linecap="round" stroke-linejoin="round"/>
<mask id="path-2-inside-1_2_236" fill="white">
<path d="M21 7.49555C19.8626 7.49555 18.9404 6.63841 18.9404 5.58103C18.9404 4.52367 19.8626 3.6665 21 3.6665V7.49555ZM28.6891 5.58103V3.6665H28.6941L28.6891 5.58103ZM38.9404 15.1538H36.8808V15.1494L38.9404 15.1538ZM38.9404 29.5127L36.8808 29.5168V29.5127H38.9404ZM28.6891 39.0853L28.6941 40.9998H28.6891V39.0853ZM13.3109 39.0853V40.9998H13.3059L13.3109 39.0853ZM3.05962 29.5127H5.11921V29.5168L3.05962 29.5127ZM1.00003 19.9401C1.00003 18.8825 1.92218 18.0256 3.05962 18.0256C4.19706 18.0256 5.11921 18.8825 5.11921 19.9401H1.00003ZM10.4184 5.11085C10.8526 4.1335 12.0567 3.66827 13.1082 4.07174C14.1597 4.47522 14.66 5.59461 14.2259 6.57196L10.4184 5.11085ZM3.9771 12.6094C2.86657 12.3812 2.16521 11.3592 2.41071 10.3268C2.65621 9.29436 3.75548 8.6424 4.86629 8.87064L3.9771 12.6094ZM31.2512 29.9926C32.3887 29.9926 33.3108 30.8495 33.3108 31.9071C33.3108 32.9645 32.3887 33.8216 31.2512 33.8216V29.9926ZM10.746 33.8216C9.60856 33.8216 8.68641 32.9645 8.68641 31.9071C8.68641 30.8495 9.60856 29.9926 10.746 29.9926V33.8216ZM21 3.6665H28.6891V7.49555H21V3.6665ZM28.6941 3.6665C35.5055 3.68172 41.0146 8.82604 41 15.1579L36.8808 15.1494C36.8905 10.9322 33.2211 7.50568 28.6842 7.49555L28.6941 3.6665ZM41 15.1538V29.5127H36.8808V15.1538H41ZM41 29.5084C41.0146 35.8401 35.5055 40.9845 28.6941 40.9998L28.6842 37.1708C33.2211 37.1606 36.8905 33.7341 36.8808 29.5168L41 29.5084ZM28.6891 40.9998H13.3109V37.1708H28.6891V40.9998ZM13.3059 40.9998C6.49446 40.9845 0.985474 35.8401 1.00003 29.5084L5.11921 29.5168C5.1096 33.7341 8.77896 37.1606 13.3158 37.1708L13.3059 40.9998ZM1.00003 29.5127V19.9401H5.11921V29.5127H1.00003ZM14.2259 6.57196C13.6907 7.77716 12.5988 9.48538 10.9668 10.8053C9.2977 12.1554 6.89897 13.2098 3.9771 12.6094L4.86629 8.87064C6.14323 9.13303 7.25267 8.73371 8.26296 7.91662C9.31061 7.06925 10.0694 5.89675 10.4184 5.11085L14.2259 6.57196ZM31.2512 33.8216H10.746V29.9926H31.2512V33.8216Z"/>
</mask>
<path d="M21 7.49555C19.8626 7.49555 18.9404 6.63841 18.9404 5.58103C18.9404 4.52367 19.8626 3.6665 21 3.6665V7.49555ZM28.6891 5.58103V3.6665H28.6941L28.6891 5.58103ZM38.9404 15.1538H36.8808V15.1494L38.9404 15.1538ZM38.9404 29.5127L36.8808 29.5168V29.5127H38.9404ZM28.6891 39.0853L28.6941 40.9998H28.6891V39.0853ZM13.3109 39.0853V40.9998H13.3059L13.3109 39.0853ZM3.05962 29.5127H5.11921V29.5168L3.05962 29.5127ZM1.00003 19.9401C1.00003 18.8825 1.92218 18.0256 3.05962 18.0256C4.19706 18.0256 5.11921 18.8825 5.11921 19.9401H1.00003ZM10.4184 5.11085C10.8526 4.1335 12.0567 3.66827 13.1082 4.07174C14.1597 4.47522 14.66 5.59461 14.2259 6.57196L10.4184 5.11085ZM3.9771 12.6094C2.86657 12.3812 2.16521 11.3592 2.41071 10.3268C2.65621 9.29436 3.75548 8.6424 4.86629 8.87064L3.9771 12.6094ZM31.2512 29.9926C32.3887 29.9926 33.3108 30.8495 33.3108 31.9071C33.3108 32.9645 32.3887 33.8216 31.2512 33.8216V29.9926ZM10.746 33.8216C9.60856 33.8216 8.68641 32.9645 8.68641 31.9071C8.68641 30.8495 9.60856 29.9926 10.746 29.9926V33.8216ZM21 3.6665H28.6891V7.49555H21V3.6665ZM28.6941 3.6665C35.5055 3.68172 41.0146 8.82604 41 15.1579L36.8808 15.1494C36.8905 10.9322 33.2211 7.50568 28.6842 7.49555L28.6941 3.6665ZM41 15.1538V29.5127H36.8808V15.1538H41ZM41 29.5084C41.0146 35.8401 35.5055 40.9845 28.6941 40.9998L28.6842 37.1708C33.2211 37.1606 36.8905 33.7341 36.8808 29.5168L41 29.5084ZM28.6891 40.9998H13.3109V37.1708H28.6891V40.9998ZM13.3059 40.9998C6.49446 40.9845 0.985474 35.8401 1.00003 29.5084L5.11921 29.5168C5.1096 33.7341 8.77896 37.1606 13.3158 37.1708L13.3059 40.9998ZM1.00003 29.5127V19.9401H5.11921V29.5127H1.00003ZM14.2259 6.57196C13.6907 7.77716 12.5988 9.48538 10.9668 10.8053C9.2977 12.1554 6.89897 13.2098 3.9771 12.6094L4.86629 8.87064C6.14323 9.13303 7.25267 8.73371 8.26296 7.91662C9.31061 7.06925 10.0694 5.89675 10.4184 5.11085L14.2259 6.57196ZM31.2512 33.8216H10.746V29.9926H31.2512V33.8216Z" fill="black"/>
<path d="M21.5 3.6665V7.49555H20.5V3.6665H21.5ZM5.11921 20.4401H1.00003V19.4401H5.11921V20.4401ZM14.0468 7.03877L10.2393 5.57765L10.5975 4.64404L14.405 6.10515L14.0468 7.03877ZM5.35272 8.98632L4.46353 12.7251L3.49067 12.4937L4.37986 8.75495L5.35272 8.98632ZM30.7512 33.8216V29.9926H31.7512V33.8216H30.7512ZM11.246 29.9926V33.8216H10.246V29.9926H11.246ZM28.6891 5.58103L29.6891 5.58361L27.6891 5.58103H28.6891ZM28.6941 3.6665V2.6665L28.6963 2.66651L28.6941 3.6665ZM38.9404 15.1538L38.9425 14.1538L38.9404 16.1538V15.1538ZM36.8808 15.1494H35.8808L35.8808 15.1471L36.8808 15.1494ZM38.9404 29.5127V28.5127L38.9424 30.5127L38.9404 29.5127ZM36.8808 29.5168L35.8808 29.5191V29.5168H36.8808ZM28.6891 39.0853H27.6891L29.6891 39.0827L28.6891 39.0853ZM28.6941 40.9998L28.6963 41.9998H28.6941V40.9998ZM13.3109 39.0853L12.3109 39.0827L14.3109 39.0853H13.3109ZM13.3059 40.9998V41.9998L13.3037 41.9998L13.3059 40.9998ZM3.05962 29.5127L3.05763 30.5127L3.05962 28.5127V29.5127ZM5.11921 29.5168H6.11921L6.11921 29.5191L5.11921 29.5168ZM10.4184 5.11085L9.50447 4.70496L9.50451 4.70488L10.4184 5.11085ZM14.2259 6.57196L13.312 6.16609L13.312 6.16599L14.2259 6.57196ZM3.9771 12.6094L3.77581 13.589L3.77581 13.589L3.9771 12.6094ZM4.86629 8.87064L5.06755 7.8911L5.06757 7.8911L4.86629 8.87064ZM28.6891 7.49555H29.6891V8.49555H28.6891V7.49555ZM41 15.1579L42 15.1602L41.9977 16.1599L40.9979 16.1579L41 15.1579ZM28.6842 7.49555L28.6819 8.49555L27.6816 8.49331L27.6842 7.49297L28.6842 7.49555ZM41 15.1538V14.1538H42V15.1538H41ZM41 29.5127H42V30.5127H41V29.5127ZM41 29.5084L40.9979 28.5084L41.9977 28.5063L42 29.5061L41 29.5084ZM28.6842 37.1708L27.6842 37.1734L27.6816 36.173L28.6819 36.1708L28.6842 37.1708ZM13.3109 37.1708H12.3109V36.1708H13.3109V37.1708ZM28.6891 37.1708V36.1708H29.6891V37.1708H28.6891ZM1.00003 29.5084L3.05176e-05 29.5061L0.00232697 28.5063L1.00207 28.5084L1.00003 29.5084ZM13.3158 37.1708L13.3181 36.1708L14.3184 36.173L14.3158 37.1734L13.3158 37.1708ZM1.00003 29.5127V30.5127H2.67029e-05V29.5127H1.00003ZM10.9668 10.8053L10.3379 10.0278L10.338 10.0277L10.9668 10.8053ZM8.26296 7.91662L8.89184 8.69413L8.8918 8.69415L8.26296 7.91662ZM21 8.49555C19.3803 8.49555 17.9404 7.25824 17.9404 5.58103H19.9404C19.9404 6.01857 20.3448 6.49555 21 6.49555V8.49555ZM17.9404 5.58103C17.9404 3.90385 19.3803 2.6665 21 2.6665V4.6665C20.3448 4.6665 19.9404 5.1435 19.9404 5.58103H17.9404ZM27.6891 5.58103V3.6665H29.6891V5.58103H27.6891ZM28.6891 2.6665H28.6941V4.6665H28.6891V2.6665ZM29.6941 3.66909L29.6891 5.58361L27.6891 5.57844L27.6941 3.66392L29.6941 3.66909ZM38.9404 16.1538H36.8808V14.1538H38.9404V16.1538ZM35.8808 15.1538V15.1494H37.8808V15.1538H35.8808ZM36.8829 14.1494L38.9425 14.1538L38.9383 16.1538L36.8787 16.1494L36.8829 14.1494ZM38.9424 30.5127L36.8828 30.5168L36.8788 28.5168L38.9384 28.5127L38.9424 30.5127ZM35.8808 29.5168V29.5127H37.8808V29.5168H35.8808ZM36.8808 28.5127H38.9404V30.5127H36.8808V28.5127ZM29.6891 39.0827L29.6941 40.9973L27.6941 41.0024L27.6891 39.0879L29.6891 39.0827ZM28.6941 41.9998H28.6891V39.9998H28.6941V41.9998ZM27.6891 40.9998V39.0853H29.6891V40.9998H27.6891ZM14.3109 39.0853V40.9998H12.3109V39.0853H14.3109ZM13.3109 41.9998H13.3059V39.9998H13.3109V41.9998ZM12.3059 40.9973L12.3109 39.0827L14.3109 39.0879L14.3059 41.0024L12.3059 40.9973ZM3.05962 28.5127H5.11921V30.5127H3.05962V28.5127ZM6.11921 29.5127V29.5168H4.11921V29.5127H6.11921ZM5.11722 30.5168L3.05763 30.5127L3.0616 28.5127L5.12119 28.5168L5.11722 30.5168ZM2.67029e-05 19.9401C2.67029e-05 18.2626 1.44002 17.0256 3.05962 17.0256V19.0256C2.40433 19.0256 2.00003 19.5024 2.00003 19.9401H2.67029e-05ZM3.05962 17.0256C4.67921 17.0256 6.11921 18.2626 6.11921 19.9401H4.11921C4.11921 19.5024 3.7149 19.0256 3.05962 19.0256V17.0256ZM9.50451 4.70488C10.1728 3.20046 11.9607 2.56033 13.4665 3.13812L12.75 5.00537C12.1527 4.7762 11.5323 5.06653 11.3323 5.51682L9.50451 4.70488ZM13.4665 3.13812C15.0027 3.72762 15.8275 5.42984 15.1398 6.97793L13.312 6.16599C13.4926 5.75938 13.3167 5.22283 12.75 5.00537L13.4665 3.13812ZM3.77581 13.589C2.1775 13.2605 1.04692 11.7394 1.43784 10.0955L3.38358 10.5581C3.28349 10.9791 3.55563 11.5019 4.17839 11.6299L3.77581 13.589ZM1.43784 10.0955C1.82188 8.48041 3.48681 7.56631 5.06755 7.8911L4.66502 9.85017C4.02416 9.7185 3.49055 10.1083 3.38358 10.5581L1.43784 10.0955ZM31.2512 28.9926C32.8709 28.9926 34.3108 30.2297 34.3108 31.9071H32.3108C32.3108 31.4694 31.9066 30.9926 31.2512 30.9926V28.9926ZM34.3108 31.9071C34.3108 33.5843 32.871 34.8216 31.2512 34.8216V32.8216C31.9065 32.8216 32.3108 32.3446 32.3108 31.9071H34.3108ZM10.746 34.8216C9.12632 34.8216 7.68641 33.5843 7.68641 31.9071H9.68641C9.68641 32.3446 10.0908 32.8216 10.746 32.8216V34.8216ZM7.68641 31.9071C7.68641 30.2296 9.12641 28.9926 10.746 28.9926V30.9926C10.0907 30.9926 9.68641 31.4694 9.68641 31.9071H7.68641ZM21 2.6665H28.6891V4.6665H21V2.6665ZM29.6891 3.6665V7.49555H27.6891V3.6665H29.6891ZM28.6891 8.49555H21V6.49555H28.6891V8.49555ZM28.6963 2.66651C35.99 2.6828 42.016 8.20851 42 15.1602L40 15.1556C40.0131 9.44358 35.021 4.68064 28.6918 4.6665L28.6963 2.66651ZM40.9979 16.1579L36.8787 16.1494L36.8828 14.1494L41.002 14.1579L40.9979 16.1579ZM35.8808 15.1471C35.8891 11.5497 32.7366 8.50461 28.6819 8.49555L28.6864 6.49555C33.7056 6.50676 37.8919 10.3146 37.8808 15.1517L35.8808 15.1471ZM27.6842 7.49297L27.6941 3.66392L29.6941 3.66909L29.6842 7.49813L27.6842 7.49297ZM42 15.1538V29.5127H40V15.1538H42ZM41 30.5127H36.8808V28.5127H41V30.5127ZM35.8808 29.5127V15.1538H37.8808V29.5127H35.8808ZM36.8808 14.1538H41V16.1538H36.8808V14.1538ZM42 29.5061C42.016 36.4576 35.9901 41.9834 28.6963 41.9998L28.6918 39.9998C35.021 39.9856 40.0131 35.2225 40 29.5107L42 29.5061ZM27.6941 41.0024L27.6842 37.1734L29.6842 37.1682L29.6941 40.9973L27.6941 41.0024ZM28.6819 36.1708C32.7366 36.1617 35.8891 33.1165 35.8808 29.5191L37.8808 29.5145C37.8919 34.3516 33.7056 38.1595 28.6864 38.1708L28.6819 36.1708ZM36.8787 28.5168L40.9979 28.5084L41.002 30.5084L36.8828 30.5168L36.8787 28.5168ZM28.6891 41.9998H13.3109V39.9998H28.6891V41.9998ZM12.3109 40.9998V37.1708H14.3109V40.9998H12.3109ZM13.3109 36.1708H28.6891V38.1708H13.3109V36.1708ZM29.6891 37.1708V40.9998H27.6891V37.1708H29.6891ZM13.3037 41.9998C6.00994 41.9834 -0.0159492 36.4576 3.05176e-05 29.5061L2.00003 29.5107C1.9869 35.2225 6.97898 39.9856 13.3082 39.9998L13.3037 41.9998ZM1.00207 28.5084L5.12125 28.5168L5.11716 30.5168L0.997982 30.5084L1.00207 28.5084ZM6.11921 29.5191C6.111 33.1166 9.26347 36.1617 13.3181 36.1708L13.3136 38.1708C8.29445 38.1595 4.10818 34.3516 4.11921 29.5145L6.11921 29.5191ZM14.3158 37.1734L14.3059 41.0024L12.3059 40.9973L12.3158 37.1682L14.3158 37.1734ZM2.67029e-05 29.5127V19.9401H2.00003V29.5127H2.67029e-05ZM6.11921 19.9401V29.5127H4.11921V19.9401H6.11921ZM5.11921 30.5127H1.00003V28.5127H5.11921V30.5127ZM15.1398 6.97783C14.5533 8.29856 13.3734 10.145 11.5956 11.5828L10.338 10.0277C11.8242 8.82572 12.828 7.25577 13.312 6.16609L15.1398 6.97783ZM11.5957 11.5828C9.76306 13.0652 7.0678 14.2654 3.77581 13.589L4.17838 11.6299C6.73013 12.1543 8.83234 11.2456 10.3379 10.0278L11.5957 11.5828ZM5.06757 7.8911C5.97921 8.07843 6.79217 7.82003 7.63412 7.13908L8.8918 8.69415C7.71317 9.64739 6.30725 10.1876 4.66501 9.85017L5.06757 7.8911ZM7.63409 7.13911C8.53616 6.40949 9.20683 5.37514 9.50447 4.70496L11.3323 5.51674C10.9319 6.41836 10.0851 7.72901 8.89184 8.69413L7.63409 7.13911ZM31.2512 34.8216H10.746V32.8216H31.2512V34.8216ZM10.746 28.9926H31.2512V30.9926H10.746V28.9926Z" fill="#B56D94" mask="url(#path-2-inside-1_2_236)"/>
</svg>
